<?xml version="1.0" encoding="UTF-8"?><svg xmlns="http://www.w3.org/2000/svg" viewBox="0 0 81 81"><g id="a"/><g id="b"><g id="c"><g><polygon points="18 27 18 18 27 18 27 9 18 9 18 0 9 0 9 9 9 18 9 27 9 36 18 36 18 27"/><rect x="27" y="18" width="9" height="9"/><rect x="36" y="27" width="9" height="9"/><rect x="45" y="18" width="9" height="9"/><polygon points="63 27 63 36 72 36 72 27 72 18 72 9 72 0 63 0 63 9 54 9 54 18 63 18 63 27"/><polygon points="63 54 63 63 54 63 54 72 63 72 63 81 72 81 72 72 72 63 72 54 72 45 63 45 63 54"/><rect x="45" y="54" width="9" height="9"/><rect x="36" y="45" width="9" height="9"/><rect x="27" y="54" width="9" height="9"/><polygon points="18 54 18 45 9 45 9 54 9 63 9 72 9 81 18 81 18 72 27 72 27 63 18 63 18 54"/><rect y="36" width="9" height="9"/><polygon points="27 36 18 36 18 45 27 45 36 45 36 36 27 36"/><polygon points="45 36 45 45 54 45 63 45 63 36 54 36 45 36"/><rect x="72" y="36" width="9" height="9"/></g></g></g></svg>